<?xml version="1.0" standalone="no"?>
<!DOCTYPE svg PUBLIC "-//W3C//DTD SVG 20010904//EN"
 "http://www.w3.org/TR/2001/REC-SVG-20010904/DTD/svg10.dtd">
<svg version="1.0" xmlns="http://www.w3.org/2000/svg"
 width="1139.000000pt" height="1139.000000pt" viewBox="0 0 1139.000000 1139.000000"
 preserveAspectRatio="xMidYMid meet">
<metadata>
Created by potrace 1.14, written by Peter Selinger 2001-2017
</metadata>
<g transform="translate(0.000000,1139.000000) scale(0.100000,-0.100000)"
fill="#000000" stroke="none">
<path d="M5325 11043 c-333 -28 -587 -66 -850 -127 -1249 -288 -2349 -1007
-3116 -2036 -47 -63 -107 -147 -133 -186 l-48 -72 2214 -4100 c1217 -2254
2220 -4110 2229 -4122 10 -16 21 -21 32 -17 16 6 17 147 17 2060 l0 2054 -46
7 c-26 3 -84 6 -129 6 -193 0 -579 51 -841 111 -359 82 -766 237 -1034 394
l-76 45 -58 135 c-56 132 -161 434 -153 441 2 2 66 -34 143 -82 610 -377 1393
-584 2209 -584 787 0 1493 224 2001 634 110 88 268 256 337 357 31 46 57 80
57 76 0 -28 -67 -319 -99 -429 -68 -231 -210 -588 -243 -610 -7 -4 -60 -32
-118 -62 -344 -177 -793 -316 -1227 -381 -149 -22 -403 -45 -498 -45 -45 0
-110 -3 -144 -6 l-61 -7 0 -2054 c0 -1861 1 -2054 16 -2060 8 -3 21 1 29 8 7
8 788 1443 1735 3189 948 1746 1950 3593 2227 4105 493 908 505 930 490 955
-72 118 -304 420 -459 597 -119 136 -430 438 -568 554 -707 590 -1545 990
-2435 1163 -301 59 -531 85 -817 93 l-218 6 0 -791 c0 -521 -3 -792 -10 -792
-7 0 -10 270 -10 790 l0 790 -152 -2 c-84 -1 -171 -3 -193 -5z m685 -1942 c63
-11 160 -33 215 -50 104 -31 279 -100 272 -108 -3 -2 -67 5 -143 16 -249 35
-395 45 -679 45 -294 0 -407 -8 -654 -50 -79 -13 -146 -22 -148 -20 -7 7 168
76 281 111 127 39 239 62 359 75 123 13 365 4 497 -19z m215 -220 c521 -62
992 -197 1378 -393 115 -59 118 -61 146 -116 83 -165 173 -398 231 -597 33
-114 92 -367 86 -372 -2 -2 -31 35 -66 82 -292 403 -862 735 -1495 873 -229
50 -583 92 -782 92 l-33 0 0 -90 c0 -53 -4 -90 -10 -90 -6 0 -10 37 -10 91 l0
90 -117 -6 c-673 -36 -1224 -201 -1680 -501 -62 -41 -141 -97 -175 -126 -180
-146 -361 -356 -437 -506 -12 -24 -24 -42 -27 -40 -14 14 78 419 136 602 35
107 73 160 221 302 401 382 1040 649 1709 713 63 6 133 13 155 15 113 11 609
-4 770 -23z m-349 -686 c261 -45 492 -164 674 -345 234 -235 360 -538 360
-870 0 -350 -128 -652 -381 -896 -167 -161 -371 -268 -609 -320 -118 -26 -362
-26 -480 0 -704 152 -1130 830 -956 1519 119 470 507 826 991 911 108 19 293
19 401 1z m-186 -2595 c0 -44 3 -80 8 -80 4 0 84 5 177 10 210 13 356 32 549
71 82 16 151 28 153 26 7 -8 -181 -89 -294 -127 -189 -62 -418 -100 -612 -100
-97 0 -322 33 -448 66 -127 33 -380 133 -338 133 6 1 59 -8 119 -19 132 -24
343 -46 529 -56 l137 -6 0 81 c0 47 4 81 10 81 6 0 10 -33 10 -80z"/>
<path d="M5505 8139 c-170 -25 -380 -112 -521 -217 -458 -341 -608 -950 -359
-1458 143 -293 388 -506 694 -605 759 -243 1531 318 1531 1114 0 326 -114 602
-344 833 -225 226 -519 346 -836 343 -58 -1 -132 -5 -165 -10z m376 -115 c46
-8 88 -20 94 -25 6 -6 -113 -132 -330 -349 -187 -187 -343 -340 -348 -340 -4
0 -6 149 -5 331 l3 332 40 14 c143 52 383 68 546 37z m440 -195 c111 -82 236
-226 293 -336 l17 -33 -471 0 -470 0 0 -119 0 -119 52 -18 c138 -46 203 -205
137 -335 -25 -50 -95 -108 -146 -122 l-43 -11 0 -122 c0 -73 4 -124 10 -126 6
-2 -98 -111 -230 -243 l-239 -239 -36 17 c-164 78 -367 275 -449 435 l-17 32
471 0 471 0 -3 121 -3 122 -45 13 c-56 16 -124 73 -150 124 -67 132 2 294 144
335 l56 16 0 120 0 119 -32 0 c-31 0 -20 13 217 250 l249 249 76 -40 c41 -23
105 -63 141 -90z m-1131 -399 c0 -269 -3 -490 -7 -490 -15 0 -473 465 -473
480 0 21 69 137 123 207 66 86 172 183 261 242 43 28 82 51 87 51 5 0 9 -218
9 -490z m1519 -175 c44 -167 49 -333 16 -495 -27 -127 12 -150 -389 238 l-360
347 350 5 c235 3 351 2 356 -5 4 -6 16 -46 27 -90z m-1686 -653 c-185 -1 -340
1 -345 6 -4 4 -20 53 -35 108 -22 84 -26 121 -27 249 -1 141 4 183 35 299 l11
39 349 -349 349 -349 -337 -3z m1627 -67 c0 -23 -98 -179 -158 -251 -69 -81
-178 -173 -273 -229 -33 -19 -62 -35 -65 -35 -2 0 -4 228 -4 506 l0 506 250
-243 c138 -133 250 -247 250 -254z m-610 -220 l0 -344 -67 -20 c-183 -55 -393
-55 -593 -1 l-43 12 349 349 c192 192 350 349 351 349 2 0 3 -155 3 -345z"/>
<path d="M1093 8488 c-566 -920 -848 -2007 -795 -3065 19 -393 64 -701 153
-1063 196 -798 568 -1530 1109 -2181 132 -158 489 -515 645 -645 915 -760
1968 -1183 3145 -1264 209 -14 197 -16 210 24 6 18 19 41 30 51 19 17 19 18
-7 69 -35 70 -4381 8124 -4403 8159 l-17 29 -70 -114z"/>
<path d="M7998 4508 c-1219 -2246 -2223 -4097 -2231 -4114 -15 -30 -15 -33 4
-49 10 -10 23 -32 27 -49 l9 -31 114 2 c328 7 771 73 1138 169 595 157 1213
442 1714 792 747 521 1357 1232 1757 2047 282 575 450 1154 527 1820 22 192
25 881 5 1075 -73 692 -248 1300 -548 1900 -94 187 -258 476 -288 508 -11 11
-432 -758 -2228 -4070z"/>
</g>
</svg>
