<?xml version="1.0" standalone="no"?>
<!DOCTYPE svg PUBLIC "-//W3C//DTD SVG 20010904//EN"
 "http://www.w3.org/TR/2001/REC-SVG-20010904/DTD/svg10.dtd">
<svg version="1.0" xmlns="http://www.w3.org/2000/svg"
 width="1139.000000pt" height="1139.000000pt" viewBox="0 0 1139.000000 1139.000000"
 preserveAspectRatio="xMidYMid meet">
<metadata>
Created by potrace 1.14, written by Peter Selinger 2001-2017
</metadata>
<g transform="translate(0.000000,1139.000000) scale(0.100000,-0.100000)"
fill="#000000" stroke="none">
<path d="M5527 11054 c-1 -1 -67 -4 -147 -8 -80 -4 -157 -8 -170 -10 -14 -3
-56 -8 -95 -11 -104 -11 -127 -13 -160 -19 -16 -2 -50 -7 -75 -11 -25 -4 -58
-9 -75 -11 -83 -13 -341 -68 -480 -104 -146 -37 -568 -172 -590 -189 -5 -4
-32 -16 -60 -26 -27 -10 -83 -33 -123 -51 -41 -19 -76 -34 -79 -34 -13 0 -339
-164 -357 -179 -10 -9 -21 -15 -25 -15 -12 3 -228 -126 -401 -240 -92 -61
-326 -230 -340 -246 -3 -3 -25 -21 -50 -40 -165 -128 -475 -423 -645 -615
-231 -260 -449 -560 -625 -860 -75 -129 -248 -465 -282 -550 -9 -22 -40 -96
-68 -165 -87 -212 -223 -644 -256 -813 -2 -12 -13 -64 -24 -117 -26 -127 -62
-353 -76 -475 -12 -107 -13 -119 -21 -225 -15 -199 -7 -810 12 -908 1 -9 6
-46 9 -82 4 -36 9 -76 11 -90 3 -14 7 -45 11 -70 34 -270 119 -625 223 -940
38 -114 76 -224 86 -246 9 -21 21 -48 25 -59 145 -357 312 -674 513 -975 74
-110 166 -240 209 -295 41 -52 153 -191 158 -195 3 -3 18 -21 34 -40 157 -192
466 -492 721 -699 152 -124 450 -329 609 -421 186 -107 253 -143 391 -210 277
-135 503 -225 780 -310 55 -18 107 -33 116 -35 9 -2 47 -12 85 -23 125 -36
448 -105 545 -117 24 -3 55 -7 69 -10 14 -3 49 -7 78 -11 29 -3 63 -7 75 -10
12 -2 55 -6 97 -10 41 -3 91 -7 110 -9 19 -2 92 -7 161 -10 145 -7 149 -8 168
-19 9 -6 12 -5 8 0 -7 12 63 12 82 0 10 -6 12 -5 7 2 -4 7 -2 12 3 12 6 0 11
-4 11 -10 0 -5 5 -10 11 -10 5 0 8 4 5 8 -2 4 14 8 37 8 57 1 301 14 357 20
25 2 72 6 105 10 71 6 118 12 165 18 19 3 53 8 75 11 104 14 291 48 390 71 61
14 119 27 130 29 11 3 70 19 130 36 61 17 117 32 125 34 47 11 364 122 445
156 330 138 537 241 790 393 106 64 304 193 350 228 6 5 62 47 125 95 111 83
246 194 340 278 79 70 374 367 440 444 36 41 70 79 75 85 6 6 37 45 71 86 433
535 760 1145 967 1805 23 72 46 153 53 180 1 6 11 46 22 90 21 80 60 250 68
293 2 12 8 48 14 80 6 31 12 68 15 82 3 14 14 95 24 180 11 85 23 180 27 210
4 30 7 233 8 450 2 361 -5 535 -29 710 -4 25 -8 60 -11 79 -2 19 -7 48 -10 65
-3 17 -7 47 -10 66 -7 53 -50 263 -78 380 -69 291 -189 647 -297 887 -10 23
-19 44 -19 48 0 8 -171 350 -205 409 -60 107 -86 152 -95 166 -5 8 -21 35 -36
60 -41 68 -180 276 -242 360 -267 364 -636 750 -976 1019 -152 121 -475 351
-491 351 -2 0 -23 13 -47 29 -157 106 -538 299 -803 408 -201 82 -558 201
-655 219 -14 3 -39 9 -56 15 -17 5 -40 11 -50 14 -10 2 -71 15 -134 29 -99 21
-243 48 -330 61 -82 12 -110 16 -150 20 -25 3 -61 7 -80 10 -37 5 -94 10 -246
20 -83 6 -492 13 -497 9z"/>
<path d="M5629 233 c-13 -16 -12 -17 4 -4 16 13 21 21 13 21 -2 0 -10 -8 -17
-17z"/>
</g>
</svg>
